{"title":"New Years Eve 2011 TS XviD.Feel-Free","uid":6972491,"size":1673032438,"categoryP":"video","categoryS":"movies","magnet":"?xt=urn:btih:995fcb25f09b8768600431491ba00825fdabef88&amp;dn=New+Years+Eve+2011+TS+XviD.Feel-Free&amp;tr=udp%3A%2F%2Ftracker.openbittorrent.com%3A80&amp;tr=udp%3A%2F%2Fopen.demonii.com%3A1337&amp;tr=udp%3A%2F%2Ftracker.coppersurfer.tk%3A6969&amp;tr=udp%3A%2F%2Fexodus.desync.com%3A6969","seeders":1,"leechers":0,"uploader":"dvdfreak1","files":9,"time":1327133527,"description":"Genre: Comedy | Romance\nLanguage:English\nIMDb: &lt;a href=&quot; http://www.imdb.com/title/tt1598822/&quot; rel=&quot;nofollow&quot; target=&quot;_NEW&quot;&gt; http://www.imdb.com/title/tt1598822/&lt;/a&gt;\nSource:Starui.novui.god.D.TS/WDR Thanks!\nEncoder:Tony &lt;a href=&quot;\nhttp://img849.imageshack.us/img849/7563/vlcsnap2012012109h06m47.png&quot; rel=&quot;nofollow&quot; target=&quot;_NEW&quot;&gt;\nhttp://img849.imageshack.us/img849/7563/vlcsnap2012012109h06m47.png&lt;/a&gt; &lt;a href=&quot;\nhttp://img407.imageshack.us/img407/5360/vlcsnap2012012109h04m54.png&quot; rel=&quot;nofollow&quot; target=&quot;_NEW&quot;&gt;\nhttp://img407.imageshack.us/img407/5360/vlcsnap2012012109h04m54.png&lt;/a&gt;\n\nFormat : AVI\nFormat/Info : Audio Video Interleave\nFile size : 1.56 GiB\nDuration : 1h 48mn\nOverall bit rate : 2 059 Kbps\n\nVideo\nID : 0\nFormat : MPEG-4 Visual\nFormat profile : Advanced Simple@L5\nFormat settings, BVOP : 1\nFormat settings, QPel : No\nFormat settings, GMC : No warppoints\nFormat settings, Matrix : Default (H.263)\nCodec ID : XVID\nCodec ID/Hint : XviD\nDuration : 1h 48mn\nBit rate : 1 599 Kbps\nWidth : 640 pixels\nHeight : 344 pixels\nDisplay aspect ratio : 1.860\nFrame rate : 29.970 fps\nColor space : YUV\nChroma subsampling : 4:2:0\nBit depth : 8 bits\nScan type : Progressive\nCompression mode : Lossy\nBits/(Pixel*Frame) : 0.242\nStream size : 1.21 GiB (78%)\nWriting library : XviD 1.2.1 (UTC 2008-12-04)\n\nAudio\nID : 1\nFormat : AC-3\nFormat/Info : Audio Coding 3\nMode extension : CM (complete main)\nCodec ID : 2000\nDuration : 1h 48mn\nBit rate mode : Constant\nBit rate : 448 Kbps\nChannel(s) : 2 channels\nChannel positions : Front: L R\nSampling rate : 48.0 KHz\nBit depth : 16 bits\nCompression mode : Lossy\nStream size : 347 MiB (22%)\nAlignment : Aligned on interleaves\nInterleave, duration : 33 ms (1.00 video frame)\nInterleave, preload duration : 512 ms\n\n\nPlot:\nThe lives of several couples and singles in New York intertwine over the course of New Year's Eve.","torrent":{"xt":"urn:btih:995fcb25f09b8768600431491ba00825fdabef88","amp;dn":"New+Years+Eve+2011+TS+XviD.Feel-Free","amp;tr":["udp%3A%2F%2Ftracker.openbittorrent.com%3A80","udp%3A%2F%2Fopen.demonii.com%3A1337","udp%3A%2F%2Ftracker.coppersurfer.tk%3A6969","udp%3A%2F%2Fexodus.desync.com%3A6969"],"infoHash":"995fcb25f09b8768600431491ba00825fdabef88","infoHashBuffer":{"type":"Buffer","data":[153,95,203,37,240,155,135,104,96,4,49,73,27,160,8,37,253,171,239,136]},"announce":[],"urlList":[]}}